<svg width="18" height="18" viewBox="0 0 18 18" fill="none" xmlns="http://www.w3.org/2000/svg">
<path d="M17.0417 0.86668C16.9509 0.788727 16.8443 0.731257 16.7292 0.698183C16.6142 0.665109 16.4934 0.657207 16.375 0.675013L5.54169 2.34168C5.3444 2.37161 5.16441 2.47134 5.03442 2.62273C4.90444 2.77413 4.83309 2.96714 4.83335 3.16668V11.7917C4.44399 11.6015 4.01668 11.5018 3.58335 11.5C3.00649 11.5 2.44259 11.6711 1.96294 11.9916C1.4833 12.312 1.10946 12.7676 0.888706 13.3005C0.667951 13.8335 0.610191 14.4199 0.722731 14.9857C0.835271 15.5515 1.11306 16.0712 1.52096 16.4791C1.92886 16.887 2.44856 17.1648 3.01434 17.2773C3.58012 17.3898 4.16656 17.3321 4.69951 17.1113C5.23247 16.8906 5.68799 16.5167 6.00847 16.0371C6.32896 15.5575 6.50002 14.9935 6.50002 14.4167V8.05001L15.6667 6.64168V10.125C15.2773 9.93483 14.85 9.83513 14.4167 9.83335C13.8398 9.83335 13.2759 10.0044 12.7963 10.3249C12.3166 10.6454 11.9428 11.1009 11.722 11.6339C11.5013 12.1668 11.4435 12.7532 11.5561 13.319C11.6686 13.8848 11.9464 14.4045 12.3543 14.8124C12.7622 15.2203 13.2819 15.4981 13.8477 15.6106C14.4135 15.7232 14.9999 15.6654 15.5328 15.4447C16.0658 15.2239 16.5213 14.8501 16.8418 14.3704C17.1623 13.8908 17.3334 13.3269 17.3334 12.75V1.50001C17.3334 1.37965 17.3073 1.26071 17.2569 1.15138C17.2066 1.04204 17.1332 0.944919 17.0417 0.86668ZM3.58335 15.6667C3.33613 15.6667 3.09445 15.5934 2.88889 15.456C2.68333 15.3187 2.52312 15.1234 2.42851 14.895C2.3339 14.6666 2.30914 14.4153 2.35737 14.1728C2.4056 13.9303 2.52466 13.7076 2.69947 13.5328C2.87429 13.358 3.09702 13.2389 3.33949 13.1907C3.58197 13.1425 3.8333 13.1672 4.06171 13.2618C4.29012 13.3564 4.48534 13.5167 4.62269 13.7222C4.76004 13.9278 4.83335 14.1695 4.83335 14.4167C4.83335 14.7482 4.70166 15.0661 4.46724 15.3006C4.23282 15.535 3.91488 15.6667 3.58335 15.6667ZM14.4167 14C14.1695 14 13.9278 13.9267 13.7222 13.7894C13.5167 13.652 13.3564 13.4568 13.2618 13.2284C13.1672 13 13.1425 12.7486 13.1907 12.5062C13.2389 12.2637 13.358 12.0409 13.5328 11.8661C13.7076 11.6913 13.9303 11.5723 14.1728 11.524C14.4153 11.4758 14.6666 11.5006 14.895 11.5952C15.1234 11.6898 15.3187 11.85 15.456 12.0556C15.5934 12.2611 15.6667 12.5028 15.6667 12.75C15.6667 13.0815 15.535 13.3995 15.3006 13.6339C15.0662 13.8683 14.7482 14 14.4167 14ZM15.6667 4.95001L6.50002 6.35835V3.85835L15.6667 2.47501V4.95001Z" fill="#828282"/>
</svg>
