<svg width="21" height="19" viewBox="0 0 21 19" fill="none" xmlns="http://www.w3.org/2000/svg">
<path d="M14.7686 0.0922182C16.2966 0.206448 17.733 0.865306 18.8163 1.94897C19.4109 2.54313 19.8825 3.24862 20.2043 4.02513C20.5261 4.80164 20.6917 5.63394 20.6917 6.47448C20.6917 7.31502 20.5261 8.14733 20.2043 8.92384C19.8825 9.70034 19.4109 10.4058 18.8163 11L11.2143 18.602C11.1194 18.6977 11.0066 18.7736 10.8822 18.8254C10.7579 18.8772 10.6245 18.9039 10.4898 18.9039C10.3551 18.9039 10.2217 18.8772 10.0974 18.8254C9.97302 18.7736 9.86016 18.6977 9.7653 18.602L2.16326 11C1.01511 9.85986 0.341605 8.32704 0.278361 6.71021C0.215118 5.09338 0.766836 3.51264 1.82241 2.2863C2.87799 1.05997 4.35902 0.279139 5.96726 0.101051C7.57549 -0.0770368 9.19148 0.360847 10.4898 1.32652C11.7222 0.415974 13.2405 -0.0220116 14.7686 0.0922182Z" fill="#EB5757"/>
</svg>
