<svg width="19" height="15" viewBox="0 0 19 15" fill="none" xmlns="http://www.w3.org/2000/svg">
<path d="M18.1873 1.55833C18.1873 2.19083 17.6698 2.70833 17.0373 2.70833H6.47644C5.84394 2.70833 5.32644 2.19083 5.32644 1.55833C5.32644 0.925833 5.84394 0.408333 6.47644 0.408333H17.0373C17.6698 0.408333 18.1873 0.925833 18.1873 1.55833ZM6.45727 8.65H12.4564C13.0889 8.65 13.6064 8.1325 13.6064 7.5C13.6064 6.8675 13.0889 6.35 12.4564 6.35H6.45727C5.82477 6.35 5.30727 6.8675 5.30727 7.5C5.30727 8.1325 5.82477 8.65 6.45727 8.65ZM14.9289 12.2917H6.45727C5.82477 12.2917 5.30727 12.8092 5.30727 13.4417C5.30727 14.0742 5.82477 14.5917 6.45727 14.5917H14.9289C15.5614 14.5917 16.0789 14.0742 16.0789 13.4417C16.0789 12.8092 15.5806 12.2917 14.9289 12.2917ZM1.99144 0.3125C1.6656 0.3125 1.33977 0.446648 1.10977 0.676648C0.879774 0.906648 0.745603 1.2325 0.745603 1.55833C0.745603 1.88417 0.879774 2.21002 1.10977 2.44002C1.33977 2.67002 1.6656 2.80417 1.99144 2.80417C2.31727 2.80417 2.64311 2.67002 2.87311 2.44002C3.10311 2.21002 3.23727 1.88417 3.23727 1.55833C3.23727 1.2325 3.10311 0.906648 2.87311 0.676648C2.64311 0.446648 2.31727 0.3125 1.99144 0.3125ZM1.99144 6.25417C1.6656 6.25417 1.33977 6.38831 1.10977 6.61831C0.879774 6.84831 0.745603 7.17417 0.745603 7.5C0.745603 7.82583 0.879774 8.15169 1.10977 8.38169C1.33977 8.61168 1.6656 8.74583 1.99144 8.74583C2.31727 8.74583 2.64311 8.61168 2.87311 8.38169C3.10311 8.15169 3.23727 7.82583 3.23727 7.5C3.23727 7.17417 3.10311 6.84831 2.87311 6.61831C2.64311 6.38831 2.31727 6.25417 1.99144 6.25417ZM1.99144 12.1958C1.6656 12.1958 1.33977 12.33 1.10977 12.56C0.879774 12.79 0.745603 13.1158 0.745603 13.4417C0.745603 13.7675 0.879774 14.0934 1.10977 14.3234C1.33977 14.5534 1.6656 14.6875 1.99144 14.6875C2.31727 14.6875 2.64311 14.5534 2.87311 14.3234C3.10311 14.0934 3.23727 13.7675 3.23727 13.4417C3.23727 13.1158 3.10311 12.79 2.87311 12.56C2.64311 12.33 2.31727 12.1958 1.99144 12.1958Z" fill="#DDDDDD"/>
</svg>
